<svg xmlns="http://www.w3.org/2000/svg" xmlns:xlink="http://www.w3.org/1999/xlink" width="60" zoomAndPan="magnify" viewBox="0 0 45 30.000001" height="40" preserveAspectRatio="xMidYMid meet" version="1.0"><defs><g/></defs><path stroke-linecap="butt" transform="matrix(0.725806, 0, 0, 0.725806, 3.629032, 17.143066)" fill="none" stroke-linejoin="miter" d="M -0.000172578 0.00201826 L 9.99948 0.00201826 " stroke="#000000" stroke-width="1" stroke-opacity="1" stroke-miterlimit="4"/><g fill="#000000" fill-opacity="1"><g transform="translate(3.629032, 15.55422)"><g><path d="M 2.015625 0.09375 C 1.648438 0.09375 1.296875 0.0507812 0.953125 -0.03125 C 0.617188 -0.125 0.347656 -0.25 0.140625 -0.40625 L 0.546875 -1.328125 C 0.742188 -1.191406 0.972656 -1.082031 1.234375 -1 C 1.503906 -0.925781 1.765625 -0.890625 2.015625 -0.890625 C 2.492188 -0.890625 2.734375 -1.007812 2.734375 -1.25 C 2.734375 -1.375 2.664062 -1.46875 2.53125 -1.53125 C 2.394531 -1.59375 2.175781 -1.660156 1.875 -1.734375 C 1.539062 -1.804688 1.257812 -1.878906 1.03125 -1.953125 C 0.800781 -2.035156 0.601562 -2.164062 0.4375 -2.34375 C 0.28125 -2.53125 0.203125 -2.78125 0.203125 -3.09375 C 0.203125 -3.363281 0.273438 -3.609375 0.421875 -3.828125 C 0.578125 -4.046875 0.800781 -4.21875 1.09375 -4.34375 C 1.382812 -4.476562 1.75 -4.546875 2.1875 -4.546875 C 2.476562 -4.546875 2.765625 -4.507812 3.046875 -4.4375 C 3.328125 -4.375 3.578125 -4.28125 3.796875 -4.15625 L 3.40625 -3.21875 C 2.976562 -3.445312 2.566406 -3.5625 2.171875 -3.5625 C 1.921875 -3.5625 1.738281 -3.523438 1.625 -3.453125 C 1.507812 -3.378906 1.453125 -3.28125 1.453125 -3.15625 C 1.453125 -3.039062 1.519531 -2.953125 1.65625 -2.890625 C 1.789062 -2.828125 2.007812 -2.765625 2.3125 -2.703125 C 2.65625 -2.628906 2.9375 -2.550781 3.15625 -2.46875 C 3.375 -2.394531 3.566406 -2.265625 3.734375 -2.078125 C 3.898438 -1.898438 3.984375 -1.65625 3.984375 -1.34375 C 3.984375 -1.082031 3.90625 -0.84375 3.75 -0.625 C 3.601562 -0.40625 3.378906 -0.226562 3.078125 -0.09375 C 2.785156 0.03125 2.429688 0.09375 2.015625 0.09375 Z M 2.015625 0.09375 "/></g></g></g><g fill="#000000" fill-opacity="1"><g transform="translate(8.300933, 15.55422)"><g><path d="M 0.4375 -4.453125 L 1.703125 -4.453125 L 1.703125 -1 L 3.828125 -1 L 3.828125 0 L 0.4375 0 Z M 0.4375 -4.453125 "/></g></g></g><g fill="#000000" fill-opacity="1"><g transform="translate(12.737335, 15.55422)"><g><path d="M 4.953125 -4.453125 L 3.046875 0 L 1.8125 0 L -0.09375 -4.453125 L 1.265625 -4.453125 L 2.484375 -1.546875 L 3.71875 -4.453125 Z M 4.953125 -4.453125 "/></g></g></g><g fill="#000000" fill-opacity="1"><g transform="translate(11.779895, 17.744637)"><g><path d="M 0.171875 -1.171875 L 0.671875 -1.171875 C 0.796875 -1.171875 0.90625 -1.144531 1 -1.09375 C 1.09375 -1.039062 1.164062 -0.96875 1.21875 -0.875 C 1.269531 -0.789062 1.296875 -0.691406 1.296875 -0.578125 C 1.296875 -0.460938 1.269531 -0.359375 1.21875 -0.265625 C 1.164062 -0.179688 1.09375 -0.113281 1 -0.0625 C 0.90625 -0.0195312 0.796875 0 0.671875 0 L 0.171875 0 Z M 0.65625 -0.140625 C 0.75 -0.140625 0.832031 -0.15625 0.90625 -0.1875 C 0.976562 -0.226562 1.035156 -0.28125 1.078125 -0.34375 C 1.117188 -0.414062 1.140625 -0.492188 1.140625 -0.578125 C 1.140625 -0.671875 1.117188 -0.75 1.078125 -0.8125 C 1.035156 -0.882812 0.976562 -0.9375 0.90625 -0.96875 C 0.832031 -1.007812 0.75 -1.03125 0.65625 -1.03125 L 0.34375 -1.03125 L 0.34375 -0.140625 Z M 0.65625 -0.140625 "/></g></g></g><g fill="#000000" fill-opacity="1"><g transform="translate(13.572853, 17.744637)"><g><path d="M 1.03125 -0.140625 L 1.03125 0 L 0.171875 0 L 0.171875 -1.171875 L 1 -1.171875 L 1 -1.03125 L 0.34375 -1.03125 L 0.34375 -0.671875 L 0.921875 -0.671875 L 0.921875 -0.515625 L 0.34375 -0.515625 L 0.34375 -0.140625 Z M 1.03125 -0.140625 "/></g></g></g><g fill="#000000" fill-opacity="1"><g transform="translate(15.10538, 17.744637)"><g><path d="M 1.1875 -1.171875 L 0.671875 0 L 0.515625 0 L 0 -1.171875 L 0.171875 -1.171875 L 0.59375 -0.203125 L 1.03125 -1.171875 Z M 1.1875 -1.171875 "/></g></g></g><g fill="#000000" fill-opacity="1"><g transform="translate(16.708024, 17.744637)"><g><path d="M 1.03125 -0.140625 L 1.03125 0 L 0.171875 0 L 0.171875 -1.171875 L 1 -1.171875 L 1 -1.03125 L 0.34375 -1.03125 L 0.34375 -0.671875 L 0.921875 -0.671875 L 0.921875 -0.515625 L 0.34375 -0.515625 L 0.34375 -0.140625 Z M 1.03125 -0.140625 "/></g></g></g><g fill="#000000" fill-opacity="1"><g transform="translate(18.240552, 17.744637)"><g><path d="M 0.171875 -1.171875 L 0.34375 -1.171875 L 0.34375 -0.140625 L 0.96875 -0.140625 L 0.96875 0 L 0.171875 0 Z M 0.171875 -1.171875 "/></g></g></g><g fill="#000000" fill-opacity="1"><g transform="translate(19.646203, 17.744637)"><g><path d="M 0.703125 0.015625 C 0.585938 0.015625 0.484375 -0.0078125 0.390625 -0.0625 C 0.296875 -0.113281 0.21875 -0.1875 0.15625 -0.28125 C 0.101562 -0.375 0.078125 -0.472656 0.078125 -0.578125 C 0.078125 -0.691406 0.101562 -0.796875 0.15625 -0.890625 C 0.21875 -0.984375 0.296875 -1.054688 0.390625 -1.109375 C 0.484375 -1.160156 0.585938 -1.1875 0.703125 -1.1875 C 0.816406 -1.1875 0.921875 -1.160156 1.015625 -1.109375 C 1.109375 -1.054688 1.179688 -0.984375 1.234375 -0.890625 C 1.296875 -0.796875 1.328125 -0.691406 1.328125 -0.578125 C 1.328125 -0.472656 1.296875 -0.375 1.234375 -0.28125 C 1.179688 -0.1875 1.109375 -0.113281 1.015625 -0.0625 C 0.921875 -0.0078125 0.816406 0.015625 0.703125 0.015625 Z M 0.703125 -0.140625 C 0.785156 -0.140625 0.859375 -0.15625 0.921875 -0.1875 C 0.992188 -0.226562 1.050781 -0.28125 1.09375 -0.34375 C 1.132812 -0.414062 1.15625 -0.492188 1.15625 -0.578125 C 1.15625 -0.671875 1.132812 -0.75 1.09375 -0.8125 C 1.050781 -0.882812 0.992188 -0.9375 0.921875 -0.96875 C 0.859375 -1.007812 0.785156 -1.03125 0.703125 -1.03125 C 0.617188 -1.03125 0.539062 -1.007812 0.46875 -0.96875 C 0.394531 -0.9375 0.335938 -0.882812 0.296875 -0.8125 C 0.265625 -0.75 0.25 -0.671875 0.25 -0.578125 C 0.25 -0.492188 0.265625 -0.414062 0.296875 -0.34375 C 0.335938 -0.28125 0.394531 -0.226562 0.46875 -0.1875 C 0.539062 -0.15625 0.617188 -0.140625 0.703125 -0.140625 Z M 0.703125 -0.140625 "/></g></g></g><g fill="#000000" fill-opacity="1"><g transform="translate(21.462533, 17.744637)"><g><path d="M 0.625 -1.171875 C 0.78125 -1.171875 0.898438 -1.132812 0.984375 -1.0625 C 1.078125 -0.988281 1.125 -0.890625 1.125 -0.765625 C 1.125 -0.640625 1.078125 -0.539062 0.984375 -0.46875 C 0.898438 -0.394531 0.78125 -0.359375 0.625 -0.359375 L 0.34375 -0.359375 L 0.34375 0 L 0.171875 0 L 0.171875 -1.171875 Z M 0.625 -0.5 C 0.726562 -0.5 0.804688 -0.519531 0.859375 -0.5625 C 0.921875 -0.613281 0.953125 -0.679688 0.953125 -0.765625 C 0.953125 -0.847656 0.921875 -0.910156 0.859375 -0.953125 C 0.804688 -1.003906 0.726562 -1.03125 0.625 -1.03125 L 0.34375 -1.03125 L 0.34375 -0.5 Z M 0.625 -0.5 "/></g></g></g><g fill="#000000" fill-opacity="1"><g transform="translate(23.081869, 17.744637)"><g><path d="M 1.265625 0 L 1.265625 -0.859375 L 0.828125 -0.140625 L 0.765625 -0.140625 L 0.34375 -0.84375 L 0.34375 0 L 0.171875 0 L 0.171875 -1.171875 L 0.3125 -1.171875 L 0.796875 -0.34375 L 1.28125 -1.171875 L 1.421875 -1.171875 L 1.421875 0 Z M 1.265625 0 "/></g></g></g><g fill="#000000" fill-opacity="1"><g transform="translate(25.090182, 17.744637)"><g><path d="M 1.03125 -0.140625 L 1.03125 0 L 0.171875 0 L 0.171875 -1.171875 L 1 -1.171875 L 1 -1.03125 L 0.34375 -1.03125 L 0.34375 -0.671875 L 0.921875 -0.671875 L 0.921875 -0.515625 L 0.34375 -0.515625 L 0.34375 -0.140625 Z M 1.03125 -0.140625 "/></g></g></g><g fill="#000000" fill-opacity="1"><g transform="translate(26.622709, 17.744637)"><g><path d="M 1.1875 -1.171875 L 1.1875 0 L 1.046875 0 L 0.34375 -0.875 L 0.34375 0 L 0.171875 0 L 0.171875 -1.171875 L 0.3125 -1.171875 L 1.015625 -0.296875 L 1.015625 -1.171875 Z M 1.1875 -1.171875 "/></g></g></g><g fill="#000000" fill-opacity="1"><g transform="translate(28.392296, 17.744637)"><g><path d="M 0.40625 -1.03125 L 0 -1.03125 L 0 -1.171875 L 0.96875 -1.171875 L 0.96875 -1.03125 L 0.578125 -1.03125 L 0.578125 0 L 0.40625 0 Z M 0.40625 -1.03125 "/></g></g></g><g fill="#000000" fill-opacity="1"><g transform="translate(29.786263, 17.744637)"><g><path d="M 0.515625 0.015625 C 0.429688 0.015625 0.347656 0.00390625 0.265625 -0.015625 C 0.179688 -0.046875 0.113281 -0.0859375 0.0625 -0.140625 L 0.125 -0.265625 C 0.175781 -0.222656 0.234375 -0.1875 0.296875 -0.15625 C 0.367188 -0.132812 0.441406 -0.125 0.515625 -0.125 C 0.609375 -0.125 0.679688 -0.140625 0.734375 -0.171875 C 0.785156 -0.210938 0.8125 -0.257812 0.8125 -0.3125 C 0.8125 -0.351562 0.796875 -0.382812 0.765625 -0.40625 C 0.742188 -0.425781 0.710938 -0.441406 0.671875 -0.453125 C 0.628906 -0.472656 0.570312 -0.492188 0.5 -0.515625 C 0.414062 -0.535156 0.347656 -0.554688 0.296875 -0.578125 C 0.242188 -0.597656 0.195312 -0.628906 0.15625 -0.671875 C 0.113281 -0.710938 0.09375 -0.769531 0.09375 -0.84375 C 0.09375 -0.90625 0.109375 -0.960938 0.140625 -1.015625 C 0.179688 -1.066406 0.234375 -1.109375 0.296875 -1.140625 C 0.359375 -1.171875 0.441406 -1.1875 0.546875 -1.1875 C 0.617188 -1.1875 0.6875 -1.175781 0.75 -1.15625 C 0.8125 -1.132812 0.867188 -1.109375 0.921875 -1.078125 L 0.859375 -0.953125 C 0.816406 -0.984375 0.765625 -1.003906 0.703125 -1.015625 C 0.648438 -1.035156 0.597656 -1.046875 0.546875 -1.046875 C 0.453125 -1.046875 0.378906 -1.023438 0.328125 -0.984375 C 0.285156 -0.953125 0.265625 -0.910156 0.265625 -0.859375 C 0.265625 -0.816406 0.273438 -0.78125 0.296875 -0.75 C 0.328125 -0.726562 0.359375 -0.707031 0.390625 -0.6875 C 0.429688 -0.675781 0.488281 -0.664062 0.5625 -0.65625 C 0.644531 -0.632812 0.710938 -0.613281 0.765625 -0.59375 C 0.828125 -0.570312 0.875 -0.535156 0.90625 -0.484375 C 0.945312 -0.441406 0.96875 -0.382812 0.96875 -0.3125 C 0.96875 -0.257812 0.953125 -0.207031 0.921875 -0.15625 C 0.890625 -0.101562 0.835938 -0.0625 0.765625 -0.03125 C 0.703125 0 0.617188 0.015625 0.515625 0.015625 Z M 0.515625 0.015625 "/></g></g></g></svg>