<svg xmlns="http://www.w3.org/2000/svg" xmlns:xlink="http://www.w3.org/1999/xlink" width="500" zoomAndPan="magnify" viewBox="0 0 375 374.999991" height="500" preserveAspectRatio="xMidYMid meet" version="1.0"><defs><g/></defs><path stroke-linecap="butt" transform="matrix(9.039313, 0, 0, 8.999999, 91.066859, 212.521596)" fill="none" stroke-linejoin="miter" d="M -0.0000500337 0.000204562 L 8.04856 0.000204562 " stroke="#ffffff" stroke-width="1" stroke-opacity="1" stroke-miterlimit="4"/><g fill="#ffffff" fill-opacity="1"><g transform="translate(91.066859, 195.260788)"><g><path d="M 15.90625 0.703125 C 13.050781 0.703125 10.28125 0.351562 7.59375 -0.34375 C 4.914062 -1.050781 2.738281 -1.992188 1.0625 -3.171875 L 4.328125 -10.515625 C 5.910156 -9.484375 7.738281 -8.644531 9.8125 -8 C 11.894531 -7.363281 13.941406 -7.046875 15.953125 -7.046875 C 19.785156 -7.046875 21.703125 -8.003906 21.703125 -9.921875 C 21.703125 -10.921875 21.15625 -11.664062 20.0625 -12.15625 C 18.96875 -12.644531 17.210938 -13.15625 14.796875 -13.6875 C 12.148438 -14.257812 9.9375 -14.875 8.15625 -15.53125 C 6.375 -16.1875 4.84375 -17.234375 3.5625 -18.671875 C 2.289062 -20.117188 1.65625 -22.066406 1.65625 -24.515625 C 1.65625 -26.660156 2.242188 -28.597656 3.421875 -30.328125 C 4.597656 -32.054688 6.351562 -33.425781 8.6875 -34.4375 C 11.019531 -35.445312 13.878906 -35.953125 17.265625 -35.953125 C 19.578125 -35.953125 21.859375 -35.691406 24.109375 -35.171875 C 26.359375 -34.648438 28.34375 -33.882812 30.0625 -32.875 L 26.984375 -25.46875 C 23.628906 -27.28125 20.375 -28.1875 17.21875 -28.1875 C 15.238281 -28.1875 13.796875 -27.894531 12.890625 -27.3125 C 11.984375 -26.726562 11.53125 -25.960938 11.53125 -25.015625 C 11.53125 -24.078125 12.066406 -23.375 13.140625 -22.90625 C 14.210938 -22.4375 15.941406 -21.953125 18.328125 -21.453125 C 21.015625 -20.878906 23.238281 -20.265625 25 -19.609375 C 26.757812 -18.953125 28.285156 -17.910156 29.578125 -16.484375 C 30.867188 -15.054688 31.515625 -13.117188 31.515625 -10.671875 C 31.515625 -8.554688 30.925781 -6.640625 29.75 -4.921875 C 28.570312 -3.210938 26.804688 -1.847656 24.453125 -0.828125 C 22.109375 0.191406 19.257812 0.703125 15.90625 0.703125 Z M 15.90625 0.703125 "/></g></g></g><g fill="#ffffff" fill-opacity="1"><g transform="translate(128.019551, 195.260788)"><g><path d="M 3.53125 -35.234375 L 13.484375 -35.234375 L 13.484375 -7.90625 L 30.3125 -7.90625 L 30.3125 0 L 3.53125 0 Z M 3.53125 -35.234375 "/></g></g></g><g fill="#ffffff" fill-opacity="1"><g transform="translate(163.109524, 195.260788)"><g><path d="M 39.265625 -35.234375 L 24.171875 0 L 14.34375 0 L -0.703125 -35.234375 L 10.0625 -35.234375 L 19.640625 -12.28125 L 29.40625 -35.234375 Z M 39.265625 -35.234375 "/></g></g></g><g fill="#ffffff" fill-opacity="1"><g transform="translate(170.926942, 215.821143)"><g><path d="M 1.09375 -7.265625 L 4.15625 -7.265625 C 4.925781 -7.265625 5.609375 -7.113281 6.203125 -6.8125 C 6.796875 -6.507812 7.253906 -6.082031 7.578125 -5.53125 C 7.910156 -4.976562 8.078125 -4.347656 8.078125 -3.640625 C 8.078125 -2.921875 7.910156 -2.285156 7.578125 -1.734375 C 7.253906 -1.191406 6.796875 -0.765625 6.203125 -0.453125 C 5.609375 -0.148438 4.925781 0 4.15625 0 L 1.09375 0 Z M 4.09375 -0.90625 C 4.6875 -0.90625 5.203125 -1.019531 5.640625 -1.25 C 6.085938 -1.476562 6.429688 -1.796875 6.671875 -2.203125 C 6.921875 -2.617188 7.046875 -3.097656 7.046875 -3.640625 C 7.046875 -4.179688 6.921875 -4.65625 6.671875 -5.0625 C 6.429688 -5.476562 6.085938 -5.800781 5.640625 -6.03125 C 5.203125 -6.257812 4.6875 -6.375 4.09375 -6.375 L 2.125 -6.375 L 2.125 -0.90625 Z M 4.09375 -0.90625 "/></g></g></g><g fill="#ffffff" fill-opacity="1"><g transform="translate(182.092131, 215.821143)"><g><path d="M 6.375 -0.90625 L 6.375 0 L 1.09375 0 L 1.09375 -7.265625 L 6.21875 -7.265625 L 6.21875 -6.375 L 2.125 -6.375 L 2.125 -4.140625 L 5.78125 -4.140625 L 5.78125 -3.25 L 2.125 -3.25 L 2.125 -0.90625 Z M 6.375 -0.90625 "/></g></g></g><g fill="#ffffff" fill-opacity="1"><g transform="translate(191.635783, 215.821143)"><g><path d="M 7.40625 -7.265625 L 4.21875 0 L 3.1875 0 L -0.015625 -7.265625 L 1.109375 -7.265625 L 3.734375 -1.296875 L 6.375 -7.265625 Z M 7.40625 -7.265625 "/></g></g></g><g fill="#ffffff" fill-opacity="1"><g transform="translate(201.616006, 215.821143)"><g><path d="M 6.375 -0.90625 L 6.375 0 L 1.09375 0 L 1.09375 -7.265625 L 6.21875 -7.265625 L 6.21875 -6.375 L 2.125 -6.375 L 2.125 -4.140625 L 5.78125 -4.140625 L 5.78125 -3.25 L 2.125 -3.25 L 2.125 -0.90625 Z M 6.375 -0.90625 "/></g></g></g><g fill="#ffffff" fill-opacity="1"><g transform="translate(211.159657, 215.821143)"><g><path d="M 1.09375 -7.265625 L 2.125 -7.265625 L 2.125 -0.90625 L 6.0625 -0.90625 L 6.0625 0 L 1.09375 0 Z M 1.09375 -7.265625 "/></g></g></g><g fill="#ffffff" fill-opacity="1"><g transform="translate(219.913334, 215.821143)"><g><path d="M 4.375 0.078125 C 3.632812 0.078125 2.96875 -0.0820312 2.375 -0.40625 C 1.789062 -0.726562 1.332031 -1.171875 1 -1.734375 C 0.664062 -2.304688 0.5 -2.941406 0.5 -3.640625 C 0.5 -4.335938 0.664062 -4.96875 1 -5.53125 C 1.332031 -6.101562 1.789062 -6.550781 2.375 -6.875 C 2.96875 -7.195312 3.632812 -7.359375 4.375 -7.359375 C 5.101562 -7.359375 5.757812 -7.195312 6.34375 -6.875 C 6.9375 -6.550781 7.398438 -6.109375 7.734375 -5.546875 C 8.066406 -4.984375 8.234375 -4.347656 8.234375 -3.640625 C 8.234375 -2.929688 8.066406 -2.296875 7.734375 -1.734375 C 7.398438 -1.171875 6.9375 -0.726562 6.34375 -0.40625 C 5.757812 -0.0820312 5.101562 0.078125 4.375 0.078125 Z M 4.375 -0.84375 C 4.90625 -0.84375 5.382812 -0.960938 5.8125 -1.203125 C 6.238281 -1.441406 6.570312 -1.773438 6.8125 -2.203125 C 7.0625 -2.628906 7.1875 -3.109375 7.1875 -3.640625 C 7.1875 -4.160156 7.0625 -4.632812 6.8125 -5.0625 C 6.570312 -5.488281 6.238281 -5.820312 5.8125 -6.0625 C 5.382812 -6.3125 4.90625 -6.4375 4.375 -6.4375 C 3.84375 -6.4375 3.359375 -6.3125 2.921875 -6.0625 C 2.492188 -5.820312 2.15625 -5.488281 1.90625 -5.0625 C 1.65625 -4.632812 1.53125 -4.160156 1.53125 -3.640625 C 1.53125 -3.109375 1.65625 -2.628906 1.90625 -2.203125 C 2.15625 -1.773438 2.492188 -1.441406 2.921875 -1.203125 C 3.359375 -0.960938 3.84375 -0.84375 4.375 -0.84375 Z M 4.375 -0.84375 "/></g></g></g><g fill="#ffffff" fill-opacity="1"><g transform="translate(231.224044, 215.821143)"><g><path d="M 3.921875 -7.265625 C 4.867188 -7.265625 5.613281 -7.039062 6.15625 -6.59375 C 6.695312 -6.144531 6.96875 -5.523438 6.96875 -4.734375 C 6.96875 -3.941406 6.695312 -3.320312 6.15625 -2.875 C 5.613281 -2.425781 4.867188 -2.203125 3.921875 -2.203125 L 2.125 -2.203125 L 2.125 0 L 1.09375 0 L 1.09375 -7.265625 Z M 3.890625 -3.109375 C 4.554688 -3.109375 5.0625 -3.25 5.40625 -3.53125 C 5.75 -3.8125 5.921875 -4.210938 5.921875 -4.734375 C 5.921875 -5.265625 5.75 -5.671875 5.40625 -5.953125 C 5.0625 -6.234375 4.554688 -6.375 3.890625 -6.375 L 2.125 -6.375 L 2.125 -3.109375 Z M 3.890625 -3.109375 "/></g></g></g><g fill="#ffffff" fill-opacity="1"><g transform="translate(241.308211, 215.821143)"><g><path d="M 7.828125 0 L 7.828125 -5.296875 L 5.1875 -0.890625 L 4.71875 -0.890625 L 2.09375 -5.265625 L 2.09375 0 L 1.09375 0 L 1.09375 -7.265625 L 1.9375 -7.265625 L 4.984375 -2.15625 L 7.96875 -7.265625 L 8.828125 -7.265625 L 8.828125 0 Z M 7.828125 0 "/></g></g></g><g fill="#ffffff" fill-opacity="1"><g transform="translate(253.814291, 215.821143)"><g><path d="M 6.375 -0.90625 L 6.375 0 L 1.09375 0 L 1.09375 -7.265625 L 6.21875 -7.265625 L 6.21875 -6.375 L 2.125 -6.375 L 2.125 -4.140625 L 5.78125 -4.140625 L 5.78125 -3.25 L 2.125 -3.25 L 2.125 -0.90625 Z M 6.375 -0.90625 "/></g></g></g><g fill="#ffffff" fill-opacity="1"><g transform="translate(263.357942, 215.821143)"><g><path d="M 7.34375 -7.265625 L 7.34375 0 L 6.5 0 L 2.125 -5.421875 L 2.125 0 L 1.09375 0 L 1.09375 -7.265625 L 1.9375 -7.265625 L 6.3125 -1.84375 L 6.3125 -7.265625 Z M 7.34375 -7.265625 "/></g></g></g><g fill="#ffffff" fill-opacity="1"><g transform="translate(274.377611, 215.821143)"><g><path d="M 2.53125 -6.375 L 0.046875 -6.375 L 0.046875 -7.265625 L 6.0625 -7.265625 L 6.0625 -6.375 L 3.5625 -6.375 L 3.5625 0 L 2.53125 0 Z M 2.53125 -6.375 "/></g></g></g><g fill="#ffffff" fill-opacity="1"><g transform="translate(283.058527, 215.821143)"><g><path d="M 3.203125 0.078125 C 2.660156 0.078125 2.132812 -0.00390625 1.625 -0.171875 C 1.113281 -0.335938 0.710938 -0.554688 0.421875 -0.828125 L 0.8125 -1.640625 C 1.082031 -1.390625 1.4375 -1.1875 1.875 -1.03125 C 2.3125 -0.875 2.753906 -0.796875 3.203125 -0.796875 C 3.804688 -0.796875 4.257812 -0.894531 4.5625 -1.09375 C 4.863281 -1.300781 5.015625 -1.578125 5.015625 -1.921875 C 5.015625 -2.171875 4.929688 -2.375 4.765625 -2.53125 C 4.597656 -2.6875 4.394531 -2.804688 4.15625 -2.890625 C 3.914062 -2.972656 3.578125 -3.066406 3.140625 -3.171875 C 2.597656 -3.296875 2.15625 -3.425781 1.8125 -3.5625 C 1.476562 -3.695312 1.191406 -3.898438 0.953125 -4.171875 C 0.722656 -4.441406 0.609375 -4.8125 0.609375 -5.28125 C 0.609375 -5.664062 0.707031 -6.015625 0.90625 -6.328125 C 1.113281 -6.640625 1.425781 -6.890625 1.84375 -7.078125 C 2.257812 -7.265625 2.773438 -7.359375 3.390625 -7.359375 C 3.816406 -7.359375 4.238281 -7.300781 4.65625 -7.1875 C 5.070312 -7.082031 5.425781 -6.925781 5.71875 -6.71875 L 5.375 -5.875 C 5.070312 -6.070312 4.75 -6.21875 4.40625 -6.3125 C 4.0625 -6.414062 3.722656 -6.46875 3.390625 -6.46875 C 2.796875 -6.46875 2.351562 -6.359375 2.0625 -6.140625 C 1.769531 -5.929688 1.625 -5.65625 1.625 -5.3125 C 1.625 -5.070312 1.707031 -4.875 1.875 -4.71875 C 2.039062 -4.5625 2.242188 -4.4375 2.484375 -4.34375 C 2.734375 -4.257812 3.066406 -4.171875 3.484375 -4.078125 C 4.035156 -3.941406 4.476562 -3.804688 4.8125 -3.671875 C 5.144531 -3.546875 5.429688 -3.347656 5.671875 -3.078125 C 5.910156 -2.804688 6.03125 -2.441406 6.03125 -1.984375 C 6.03125 -1.597656 5.925781 -1.25 5.71875 -0.9375 C 5.507812 -0.625 5.191406 -0.375 4.765625 -0.1875 C 4.347656 -0.0078125 3.828125 0.078125 3.203125 0.078125 Z M 3.203125 0.078125 "/></g></g></g></svg>